# xmcd
#
# Track frame offsets:
#	150
#	17782
#	35025
#	52845
#	70197
#	91550
#	105232
#	125680
#	136560
#	156915
#	176970
#	195575
#	209720
#	222355
#	237755
#	254847
#
# Disc length: 3639 seconds
#
# Revision: 1
# Processed by: cddbd v1.4PL0 Copyright (c) Steve Scherf et al.
# Submitted via: audiograbber 1.80
#
DISCID=e30e3510
DTITLE=Daryl Hall and John Oates - The Hall and Oates Collection
DYEAR=1900
DGENRE=
TTITLE0=Kiss on my list
TTITLE1=It's a laugh
TTITLE2=Bebop drop
TTITLE3=How does it feel to be back
TTITLE4=Portable radio
TTITLE5=Crazy eyes
TTITLE6=Do what you want, be what you are
TTITLE7=Rich girl
TTITLE8=She's gone
TTITLE9=Bigger than both of us
TTITLE10=Wait for me
TTITLE11=Sara smile
TTITLE12=Camellia
TTITLE13=Back together again
TTITLE14=I don't want to lose you
TTITLE15=You've lost that lovin' feelin'
EXTD=
EXTT0=
EXTT1=
EXTT2=
EXTT3=
EXTT4=
EXTT5=
EXTT6=
EXTT7=
EXTT8=
EXTT9=
EXTT10=
EXTT11=
EXTT12=
EXTT13=
EXTT14=
EXTT15=
PLAYORDER=
